<svg xmlns="http://www.w3.org/2000/svg" viewBox="0 0 24 24" fill="#232425" role="img"><title>Klaviyo</title><path d="M12 3.6 1.5 9.78A.6.6 0 0 0 1.2 10.3v.9a.6.6 0 0 0 .9.52l9.6-5.65a.6.6 0 0 1 .6 0l9.6 5.65a.6.6 0 0 0 .9-.52v-.9a.6.6 0 0 0-.3-.52L12 3.6zm-7.5 7.66a.6.6 0 0 0-.9.52v8.62c0 .33.27.6.6.6h2.4a.6.6 0 0 0 .6-.6v-5.95l4.5-2.65a.6.6 0 0 1 .6 0l4.5 2.65v5.95c0 .33.27.6.6.6h2.4a.6.6 0 0 0 .6-.6V11.78a.6.6 0 0 0-.9-.52l-7.2 4.24a.6.6 0 0 1-.6 0L4.5 11.26zM12 13.2a2.4 2.4 0 1 0 0 4.8 2.4 2.4 0 0 0 0-4.8z"/></svg>
